Coordinates
version=1
nRows=19
nColumns=36
inDegrees=yes

Units are S.I. units (second, meters, Newtons, ...)
If the header above contains a line with 'inDegrees', this indicates whether rotational values are in degrees (yes) or radians (no).

endheader
time	pelvis_tilt	pelvis_list	pelvis_rotation	pelvis_tx	pelvis_ty	pelvis_tz	hip_flexion_r	hip_adduction_r	hip_rotation_r	knee_angle_r	knee_angle_r_beta	ankle_angle_r	subtalar_angle_r	mtp_angle_r	hip_flexion_l	hip_adduction_l	hip_rotation_l	knee_angle_l	knee_angle_l_beta	ankle_angle_l	subtalar_angle_l	mtp_angle_l	lumbar_extension	lumbar_bending	lumbar_rotation	arm_flex_r	arm_add_r	arm_rot_r	elbow_flex_r	pro_sup_r	arm_flex_l	arm_add_l	arm_rot_l	elbow_flex_l	pro_sup_l
      3.56666670	    -33.96265337	      1.57184548	     -2.01253124	      1.18479983	      0.76862131	     -0.66905630	     81.58946290	    -14.93301558	     -4.17484681	     77.19155700	      1.34724682	     29.46715741	      2.30400701	     -7.49999987	     80.18740353	    -10.11464735	      0.97077230	     76.93583458	      1.34278363	     27.98943957	     -6.61014411	     -7.49999987	    -20.53974188	      0.20003426	      3.65232641	    106.58566433	    -42.78199833	     52.06728450	    134.32023366	     60.20608519	     90.16665132	    -47.28318700	     39.32452540	    136.51055305	     78.18085376
      3.58333330	    -32.67964896	      1.40371736	     -2.24763478	      1.19705095	      0.77824893	     -0.66471469	     77.33874356	    -14.31827454	     -4.93990811	     73.66509189	      1.28569840	     28.77608957	      2.44764330	     -7.49999987	     75.72389176	    -10.28152355	      0.70273241	     73.08630193	      1.27559661	     27.01179727	     -5.92952955	     -7.49999987	    -18.95269202	     -0.43206185	      2.70736455	    100.07364214	    -41.16514619	     49.45496356	    135.72498970	     60.43488356	     85.81037333	    -48.51637521	     39.12766257	    136.01244393	     78.04567694
      3.60000000	    -31.53929143	      1.25908072	     -2.47263599	      1.20310268	      0.79185478	     -0.66661588	     73.44080594	    -13.72378072	     -5.62625281	     70.31742047	      1.22727051	     28.06510029	      2.60764371	     -7.49999987	     71.59904578	    -10.55305983	      0.21411294	     69.37223253	      1.21077387	     25.96860230	     -4.97757379	     -7.49999987	    -17.70429254	     -0.88596368	      2.31971202	     96.79091364	    -42.01007560	     50.22001015	    136.42781468	     60.58180857	     83.35285965	    -49.38184886	     39.75913401	    135.98305833	     78.10628657
      3.61666670	    -30.33406045	      1.07487103	     -2.60854771	      1.20789567	      0.82571272	     -0.67092265	     68.73345270	    -13.24051627	     -6.70672590	     65.60534681	      1.14502931	     26.73843061	      2.18020332	     -7.49999987	     66.84625752	    -10.68165937	     -0.48615622	     64.42617685	      1.12444891	     24.49864890	     -4.25848727	     -7.49999987	    -17.02784352	     -1.22993280	      2.07403035	     89.90881588	    -41.37545467	     48.15515292	    134.41576822	     61.30731399	     79.01191684	    -47.87681261	     40.14521571	    133.82655457	     77.23139332
      3.63333330	    -29.35217824	      0.96814642	     -2.74117862	      1.21069640	      0.84051897	     -0.67762607	     64.65931511	    -12.87915668	     -7.73693122	     61.15860993	      1.06741911	     24.92699681	      1.82954926	     -7.49999987	     62.65901821	    -10.77442510	     -1.41394922	     59.70447678	      1.04203970	     22.51894614	     -3.68561814	     -7.49999987	    -16.31223549	     -1.18508444	      2.27873928	     86.62675169	    -42.62131427	     47.87763457	    134.22776200	     61.86553254	     76.14172579	    -46.74604708	     40.51561804	    132.18958267	     77.80171541
      3.65000000	    -28.54398014	      0.97561177	     -2.84701576	      1.21286273	      0.85046495	     -0.67243107	     61.31096632	    -12.52892178	     -8.54482514	     57.34885132	      1.00092628	     23.32954095	      1.52930495	     -7.49999987	     59.13176205	    -10.75665218	     -2.23322645	     55.60805337	      0.97054362	     21.04725829	     -3.02946855	     -7.49999987	    -15.22583176	     -1.75865526	      3.44243026	     82.45902286	    -45.15754879	     45.99896658	    134.69538577	     66.18687689	     74.91225949	    -44.91859772	     40.82504464	    130.15327184	     81.83788544
      3.66666670	    -27.10150340	      0.78701737	     -2.87416556	      1.22308879	      0.88231448	     -0.67089385	     56.49241666	    -12.06299411	     -9.90969285	     52.22873835	      0.91156345	     20.89513670	      0.92079447	     -7.49999987	     54.27127094	    -10.61806359	     -2.83696029	     50.15773461	      0.87541761	     18.59144486	     -2.83763729	     -7.49999987	    -15.29741238	     -1.71909210	      3.13723808	     77.08636473	    -45.36701303	     45.85873542	    134.26275543	     66.30685094	     70.67327151	    -45.60742716	     41.30563981	    131.18330144	     81.44436501
      3.68333330	    -26.12356540	      0.59437114	     -2.95218917	      1.22249599	      0.89721885	     -0.67130738	     52.73395052	    -11.50491670	    -11.01110914	     47.83260313	      0.83483641	     18.57915289	      0.55071821	     -7.49999987	     50.60156770	    -10.64734703	     -3.52039676	     45.66791173	      0.79705542	     16.36375011	     -2.51253268	     -7.49999987	    -14.82812538	     -1.81898634	      2.31272946	     71.23594918	    -44.20404975	     42.01567883	    132.16355329	     66.81422007	     67.50221842	    -45.76639273	     41.57431649	    130.90360903	     82.58745190
      3.70000000	    -25.05281336	      0.36549744	     -3.00812874	      1.22349947	      0.90471030	     -0.67093502	     49.35649007	    -10.85595336	    -11.79972610	     44.05445017	      0.76889521	     16.51547393	     -0.16600210	     -7.49999987	     47.37903979	    -10.66162563	     -4.05061430	     42.01258824	      0.73325799	     14.73837923	     -2.19370473	     -7.49999987	    -14.22727768	     -1.91355860	      1.99029849	     67.58325763	    -43.77809411	     40.91859866	    130.53620524	     66.91469603	     65.22719445	    -45.62275554	     41.96977328	    129.64497998	     82.84467120
      3.71666670	    -24.02533007	      0.21764283	     -3.12210041	      1.22974556	      0.91904447	     -0.67429329	     46.07738258	    -10.24023003	    -12.40731441	     40.26926292	      0.70283123	     14.61178224	     -0.67615152	     -7.49999987	     44.30600769	    -10.57951985	     -4.44383986	     38.59790288	      0.67366049	     13.15180334	     -2.10793843	     -7.49999987	    -13.60173960	     -2.05576162	      2.92420827	     62.89332246	    -44.78652573	     39.37593878	    130.33452949	     68.37996861	     62.74000565	    -44.04667585	     43.96480876	    128.81722575	     84.20233953
      3.73333330	    -22.40550868	     -0.11842510	     -3.24351308	      1.23800488	      0.94539952	     -0.67645430	     41.51292212	     -9.43312877	    -13.31366584	     35.37909082	      0.61748162	     12.11389637	     -0.92010802	     -7.49999987	     39.95246565	    -10.48078398	     -4.76581183	     34.06743663	      0.59458894	     10.90668120	     -2.08376014	     -7.49999987	    -13.35045383	     -1.71886427	      3.91575558	     55.76205741	    -44.16374498	     38.02661831	    128.09565809	     68.38856054	     53.86945246	    -42.25986849	     41.87894216	    125.49028308	     83.50386541
      3.75000000	    -20.01865426	     -0.44877771	     -3.52858947	      1.25630628	      0.95600696	     -0.68583370	     35.83846032	     -8.62064875	    -14.02316701	     30.16210183	      0.52642799	      9.36854887	     -1.08207070	     -7.49999987	     33.94263993	    -10.07895043	     -4.75612405	     28.64208003	      0.49989860	      8.12993626	     -2.73315610	     -7.49999987	    -13.59795492	     -1.07057101	      4.18639052	     49.25755771	    -44.22694767	     36.31331257	    128.20964527	     68.97718937	     47.11984021	    -41.37444992	     39.75563334	    124.35585736	     83.84223730
      3.76666670	    -18.14841150	     -0.76014988	     -3.77313279	      1.26308493	      0.96480788	     -0.68801756	     30.93411335	     -7.80174069	    -14.28103132	     25.35515131	      0.44253087	      7.08191409	     -1.13394546	     -7.49999987	     28.89837638	     -9.75609512	     -4.67099126	     23.99121890	      0.41872576	      6.06063233	     -2.97259771	     -7.49999987	    -12.99207071	     -0.16166045	      5.56852712	     42.57778744	    -44.62214865	     34.29907108	    129.72577070	     69.98957229	     38.69562928	    -38.45079183	     36.41126458	    124.12040823	     84.40869712
      3.78333330	    -16.89279285	     -0.95911776	     -3.81127959	      1.26841875	      0.97486903	     -0.68997168	     27.00124495	     -7.11870410	    -14.15246447	     21.08837774	      0.36806163	      5.13744192	     -1.35381552	     -7.49999987	     24.87623917	     -9.34110111	     -4.53157891	     19.80035554	      0.34558140	      4.57403257	     -2.94716425	     -7.49999987	    -12.17346350	      0.15930741	      6.36231486	     35.67383895	    -43.88402681	     30.54155482	    129.49962425	     78.21909210	     33.33438100	    -36.43604681	     35.14788288	    123.33351257	     91.27560461
      3.80000000	    -15.64945318	     -1.12283030	     -3.81127204	      1.27223262	      0.98179707	     -0.68430724	     23.56893844	     -6.41796756	    -13.69744270	     17.62382942	      0.30759385	      3.62996219	     -1.89596423	     -7.49999987	     21.53839452	     -9.10048201	     -4.27710966	     16.70525693	      0.29156174	      3.64173515	     -2.99621700	     -7.49999987	    -11.91889366	      0.19529579	      6.14179948	     31.79660417	    -42.34297840	     29.86797667	    129.55165034	     78.34550517	     28.94186329	    -36.36540083	     35.00377181	    124.37185645	     91.36837626
      3.81666670	    -14.50280658	     -1.21595754	     -3.74799848	      1.27778346	      0.99190243	     -0.68789504	     20.58521168	     -5.94669205	    -13.25909459	     14.75001658	      0.25743635	      2.23133979	     -2.50582717	     -7.49999987	     18.61631610	     -8.79622442	     -4.13254082	     14.13041852	      0.24662233	      2.74076442	     -3.15198217	     -7.49999987	    -11.83099067	      0.21268374	      6.00556535	     26.92041353	    -40.58896768	     27.96615683	    128.06277332	     78.53208692	     23.39584977	    -34.47653165	     33.01252988	    124.17246305	     91.43223223
      3.83333330	    -13.34592236	     -1.23958116	     -3.90606364	      1.28440047	      0.99749223	     -0.69116264	     17.89616284	     -5.62428780	    -12.80897200	     12.39331588	      0.21630417	      1.08572296	     -2.86586272	     -7.49999987	     15.87817762	     -8.47987638	     -3.94240566	     12.10801211	      0.21132468	      2.08685263	     -3.40351589	     -7.49999987	    -11.83410086	      0.05424660	      5.63630498	     22.35359266	    -38.64581069	     25.88351616	    126.59694106	     78.59525600	     18.50320850	    -33.12799710	     31.06411666	    123.32652538	     91.37030017
      3.85000000	    -11.88111244	     -1.21445140	     -3.96246567	      1.30149273	      1.00115770	     -0.70010748	     14.50857598	     -5.52161133	    -12.34815032	      9.72855656	      0.16979534	     -0.16554569	     -3.14300077	     -7.49999987	     12.49569084	     -7.92350585	     -3.81136641	      9.87862272	      0.17241449	      1.43797446	     -3.83011108	     -7.49999987	    -11.88634304	     -0.01298330	      5.08181135	     16.56015076	    -37.07823303	     23.66316062	    126.71582069	     79.25125072	     12.89398102	    -31.40434059	     28.24835960	    123.35074890	     91.49760666
      3.86666670	    -10.45332087	     -1.15577798	     -4.05688818	      1.30678318	      1.00465956	     -0.70306798	     11.34505323	     -5.51768505	    -11.72373809	      7.36337471	      0.12851513	     -1.08598580	     -3.42108546	     -7.49999987	      9.40316121	     -7.34447736	     -3.71946263	      7.98965890	      0.13944585	      1.20355522	     -3.97034532	     -7.49999987	    -11.99009150	     -0.16833724	      4.38065208	     11.57316608	    -35.23303883	     22.53405795	    125.98842000	     78.06154897	      8.76444215	    -29.77942612	     26.60944592	    122.11037971	     90.08656528
